<?xml version="1.0" encoding="utf-8"?>
<!-- Generator: Adobe Illustrator 24.3.0, SVG Export Plug-In . SVG Version: 6.00 Build 0)  -->
<svg version="1.1" id="Layer_1" xmlns="http://www.w3.org/2000/svg" xmlns:xlink="http://www.w3.org/1999/xlink" x="0px" y="0px"
	 viewBox="0 0 1250 275" style="enable-background:new 0 0 1250 275;" xml:space="preserve">
<style type="text/css">
	.st0{fill:#EC712E;}
</style>
<g>
	<path class="st0" d="M288.25,135.4c-28.22-0.89-77.78-3.64-101.25-5.2c-4.78-0.32-7.69-1.8-9.43-4.81
		c-1.74-3.01-1.57-6.27,0.55-10.57c10.61-21.56,32.59-65.19,46.07-90.35l0.09-0.16l-4.57-2.63l-0.1,0.16
		c-15.02,24.21-42.14,65.7-55.14,85.12c-2.67,3.98-5.41,5.76-8.88,5.76s-6.22-1.78-8.88-5.76c-13.68-20.43-40.47-61.37-55.2-85.12
		l-0.1-0.16l-4.57,2.63l0.09,0.16c13.37,24.95,35.38,68.5,46.13,90.35c2.12,4.3,2.28,7.56,0.55,10.57c-1.74,3.01-4.65,4.5-9.43,4.81
		c-23.44,1.56-73.01,4.31-101.31,5.2l-0.18,0.01l0,5.27l0.18,0.01c27.54,0.87,76.53,3.62,101.31,5.26c4.78,0.32,7.69,1.8,9.43,4.81
		c1.74,3.01,1.57,6.27-0.55,10.57c-10.33,21-32.71,65.24-46.13,90.29l-0.09,0.16l4.57,2.63l0.1-0.16
		c15.05-24.27,41.84-65.1,55.2-85.06c2.67-3.98,5.41-5.76,8.88-5.76s6.22,1.78,8.88,5.76c13.55,20.23,40.24,61.05,55.14,85.06
		l0.1,0.16l4.57-2.63l-0.09-0.16c-13.15-24.53-35.21-68.2-46.07-90.29c-2.12-4.3-2.28-7.56-0.55-10.57c1.74-3.01,4.65-4.5,9.43-4.81
		c24.8-1.65,73.78-4.4,101.25-5.26l0.18-0.01v-5.27L288.25,135.4z"/>
	<path class="st0" d="M967.84,254.43h43.01l-69.42-93.85c21.66-4.96,31.79-15.33,38.21-23.88c9.74-12.97,14.47-26.69,14.47-41.92
		c0-22.56-7.9-40.62-23.48-53.68C955.42,28.34,934.35,21.02,908,21.02h-91.63v233.4h34.61v-88.06h52.98L967.84,254.43z
		 M956.82,95.43c0,11.34-3.92,20.31-11.98,27.43c-8.23,7.28-19.58,10.97-33.72,10.97h-60.14V53.94h56.62
		c15.89,0.11,28.29,4.73,36.86,12.07C952.78,73.13,956.82,82.75,956.82,95.43z"/>
	<path class="st0" d="M480.95,172.55c0,9.23,0.37,18.37,0.75,25.13c-4.56-7.85-11.53-19.05-19.07-29.29L352.5,21.02h-38.57v233.41
		h37.08V92.73c0-6.06-0.28-12.64-0.6-18.09c4.07,7.16,9.72,16.52,15.27,24.03L482.2,254.43h34.91V21.02h-36.16V172.55z"/>
	<path class="st0" d="M666.26,19.26c-34.93,0-64.75,12.45-86.23,36.01C560.2,77,549.28,106.53,549.28,138.4
		c0,58.55,40.33,117.83,117.41,117.83c76.52,0,116.55-59.94,116.55-119.14C783.24,59.74,724.39,19.26,666.26,19.26z M743,138.4
		c0,42.73-23.74,85.84-76.77,85.84s-76.77-43.77-76.77-87.15c0-59.3,38.77-85.84,77.19-85.84C701.87,51.25,743,74.08,743,138.4z"/>
	<path class="st0" d="M1200.47,196.64c-13.08,15.53-32.84,27.9-60.03,27.9c-55.2,0-79.91-43.77-79.91-87.15
		c0-59.3,40.35-85.84,80.34-85.84c19.94,0,41.66,8.22,57.36,24.57l21.08-29.19c-22.04-18.1-50.53-27.37-78.88-27.37
		c-35.63,0-66.04,12.45-87.96,36.01c-20.22,21.74-31.36,51.26-31.36,83.14c0,58.55,41.14,117.83,119.76,117.83
		c34.35,0,61.48-11.61,81.1-29.66L1200.47,196.64z"/>
	<path class="st0" d="M988.76,199.76"/>
</g>
</svg>
