<?xml version="1.0" encoding="utf-8"?>
<!-- Generator: Adobe Illustrator 24.3.0, SVG Export Plug-In . SVG Version: 6.00 Build 0)  -->
<svg version="1.1" id="Layer_1" xmlns="http://www.w3.org/2000/svg" xmlns:xlink="http://www.w3.org/1999/xlink" x="0px" y="0px"
	 viewBox="0 0 1400 245" style="enable-background:new 0 0 1400 245;" xml:space="preserve">
<style type="text/css">
	.st0{fill:#524E49;}
	.st1{fill:#EC712E;}
</style>
<g>
	<path class="st0" d="M1078.13,71.34c-2.32,2.55-5.51,3.89-9.28,3.89c-4.76,0-9.81-3.19-9.81-9.28c0-6.27,5.05-9.22,9.81-9.22
		c3.83,0,7.02,1.22,9.28,3.83V55.5c0-3.77-3.02-5.92-7.08-5.92c-3.36,0-6.09,1.22-8.58,3.89l-2.03-3.02
		c3.02-3.13,6.62-4.64,11.2-4.64c5.92,0,10.85,2.67,10.85,9.46v19.26h-4.35V71.34z M1078.13,63.33c-1.68-2.32-4.64-3.48-7.72-3.48
		c-4.06,0-6.9,2.55-6.9,6.15c0,3.54,2.84,6.09,6.9,6.09c3.07,0,6.03-1.16,7.72-3.48V63.33z"/>
	<path class="st0" d="M1092.91,68.67V50.34h-4.64v-3.83h4.64v-7.66h4.35v7.66h5.69v3.83h-5.69v17.4c0,2.09,0.93,3.6,2.84,3.6
		c1.22,0,2.38-0.52,2.96-1.16l1.28,3.25c-1.1,1.04-2.67,1.8-5.22,1.8C1095,75.23,1092.91,72.85,1092.91,68.67z"/>
	<path class="st0" d="M1126.66,68.67V50.34h-4.64v-3.83h4.64v-7.66h4.35v7.66h5.69v3.83h-5.69v17.4c0,2.09,0.93,3.6,2.84,3.6
		c1.22,0,2.38-0.52,2.96-1.16l1.28,3.25c-1.1,1.04-2.67,1.8-5.22,1.8C1128.75,75.23,1126.66,72.85,1126.66,68.67z"/>
	<path class="st0" d="M1162.68,56.08c0-4.93-2.55-6.38-6.32-6.38c-3.36,0-6.61,2.09-8.3,4.35v20.48h-4.35v-38.7h4.35v14.74
		c1.97-2.32,5.8-4.76,10.04-4.76c5.86,0,8.93,2.84,8.93,8.93v19.78h-4.35V56.08z"/>
	<path class="st0" d="M1188.77,45.81c8.47,0,13.46,6.61,13.46,15.03v1.1h-22.68c0.35,5.28,4.06,9.69,10.09,9.69
		c3.19,0,6.44-1.28,8.65-3.54l2.09,2.84c-2.78,2.79-6.56,4.29-11.14,4.29c-8.3,0-14.27-5.98-14.27-14.74
		C1174.97,52.37,1180.77,45.81,1188.77,45.81z M1179.55,58.75h18.39c-0.06-4.18-2.84-9.34-9.22-9.34
		C1182.74,49.41,1179.78,54.46,1179.55,58.75z"/>
	<path class="st0" d="M1060.78,96.12h4.81v23.56c0,7.08,3.83,11.54,10.96,11.54c7.14,0,10.97-4.47,10.97-11.54V96.12h4.81v23.61
		c0,9.63-5.28,15.78-15.78,15.78s-15.78-6.21-15.78-15.72V96.12z"/>
	<path class="st0" d="M1120.98,116.48c0-4.93-2.49-6.5-6.27-6.5c-3.42,0-6.67,2.09-8.3,4.35v20.48h-4.35v-28.02h4.35v4.06
		c1.97-2.32,5.8-4.76,9.98-4.76c5.86,0,8.93,2.96,8.93,9.05v19.67h-4.35V116.48z"/>
	<path class="st0" d="M1134.14,99.13c0-1.62,1.33-2.9,2.9-2.9c1.63,0,2.96,1.28,2.96,2.9c0,1.62-1.33,2.96-2.96,2.96
		C1135.48,102.09,1134.14,100.76,1134.14,99.13z M1134.9,106.79h4.35v28.02h-4.35V106.79z"/>
	<path class="st0" d="M1144.64,106.79h4.7l9.34,22.97l9.28-22.97h4.76l-11.66,28.02h-4.76L1144.64,106.79z"/>
	<path class="st0" d="M1190.28,106.1c8.47,0,13.46,6.61,13.46,15.03v1.1h-22.68c0.35,5.28,4.06,9.69,10.09,9.69
		c3.19,0,6.44-1.28,8.65-3.54l2.09,2.84c-2.78,2.79-6.56,4.29-11.14,4.29c-8.3,0-14.27-5.98-14.27-14.74
		C1176.48,112.65,1182.28,106.1,1190.28,106.1z M1181.06,119.03h18.39c-0.06-4.18-2.84-9.34-9.22-9.34
		C1184.25,109.69,1181.29,114.74,1181.06,119.03z"/>
	<path class="st0" d="M1211.62,106.79h4.35v4.52c2.26-2.96,5.51-5.1,9.34-5.1v4.47c-0.52-0.12-1.04-0.17-1.74-0.17
		c-2.67,0-6.32,2.2-7.6,4.47v19.84h-4.35V106.79z"/>
	<path class="st0" d="M1231.46,127.97c1.86,2.15,5.4,4,9.22,4c4.29,0,6.62-1.91,6.62-4.64c0-3.07-3.42-4.06-7.19-4.99
		c-4.76-1.1-10.15-2.38-10.15-8.18c0-4.35,3.77-8.06,10.44-8.06c4.76,0,8.12,1.8,10.38,4.06l-2.03,3.02
		c-1.68-2.03-4.76-3.54-8.35-3.54c-3.83,0-6.21,1.74-6.21,4.24c0,2.73,3.19,3.6,6.85,4.47c4.87,1.1,10.5,2.49,10.5,8.7
		c0,4.7-3.77,8.47-11.02,8.47c-4.59,0-8.47-1.39-11.31-4.41L1231.46,127.97z"/>
	<path class="st0" d="M1258.72,99.13c0-1.62,1.33-2.9,2.9-2.9c1.63,0,2.96,1.28,2.96,2.9c0,1.62-1.33,2.96-2.96,2.96
		C1260.05,102.09,1258.72,100.76,1258.72,99.13z M1259.47,106.79h4.35v28.02h-4.35V106.79z"/>
	<path class="st0" d="M1274.26,128.95v-18.33h-4.64v-3.83h4.64v-7.66h4.35v7.66h5.69v3.83h-5.69v17.4c0,2.09,0.93,3.6,2.84,3.6
		c1.22,0,2.38-0.52,2.96-1.16l1.28,3.25c-1.1,1.04-2.67,1.8-5.22,1.8C1276.35,135.51,1274.26,133.13,1274.26,128.95z"/>
	<path class="st0" d="M1292.81,142.3c1.91,0,3.19-0.64,4.18-2.96l1.86-4.24l-11.72-28.31h4.7l9.34,22.97l9.28-22.97h4.76
		l-14.04,33.71c-1.68,4.06-4.53,5.63-8.24,5.69c-0.93,0-2.38-0.17-3.19-0.41l0.7-3.95C1291.07,142.12,1292.12,142.3,1292.81,142.3z"
		/>
	<path class="st0" d="M1328.13,120.77c0-8.12,5.34-14.68,13.86-14.68c8.53,0,13.87,6.55,13.87,14.68s-5.34,14.74-13.87,14.74
		C1333.47,135.51,1328.13,128.89,1328.13,120.77z M1351.28,120.77c0-5.69-3.31-10.79-9.28-10.79c-5.97,0-9.34,5.1-9.34,10.79
		c0,5.74,3.37,10.85,9.34,10.85C1347.97,131.62,1351.28,126.52,1351.28,120.77z"/>
	<path class="st0" d="M1365.02,110.62h-4.64v-3.83h4.64v-2.15c0-5.8,3.25-9.11,8.12-9.11c1.62,0,3.13,0.29,4.24,0.99l-1.1,3.25
		c-0.7-0.41-1.51-0.64-2.5-0.64c-2.84,0-4.41,1.97-4.41,5.51v2.15h5.68v3.83h-5.68v24.19h-4.35V110.62z"/>
	<path class="st0" d="M1059.22,175.78c0-11.89,8.76-20.02,19.72-20.02c7.02,0,11.78,3.31,14.85,7.66l-4.06,2.26
		c-2.21-3.25-6.21-5.63-10.79-5.63c-8.3,0-14.74,6.5-14.74,15.72c0,9.17,6.44,15.72,14.74,15.72c4.58,0,8.59-2.32,10.79-5.63
		l4.12,2.26c-3.25,4.41-7.89,7.66-14.91,7.66C1067.97,195.79,1059.22,187.67,1059.22,175.78z"/>
	<path class="st0" d="M1119.65,176.65c0-4.93-2.55-6.38-6.32-6.38c-3.36,0-6.61,2.09-8.3,4.35v20.48h-4.35v-38.7h4.35v14.74
		c1.97-2.32,5.8-4.76,10.04-4.76c5.86,0,8.93,2.84,8.93,8.93v19.78h-4.35V176.65z"/>
	<path class="st0" d="M1132.81,159.42c0-1.62,1.33-2.9,2.9-2.9c1.63,0,2.96,1.28,2.96,2.9c0,1.62-1.33,2.96-2.96,2.96
		C1134.14,162.38,1132.81,161.04,1132.81,159.42z M1133.56,167.07h4.35v28.02h-4.35V167.07z"/>
	<path class="st0" d="M1159.84,166.38c5.11,0,8.12,2.09,10.27,4.87l-2.9,2.67c-1.86-2.55-4.24-3.66-7.14-3.66
		c-5.98,0-9.69,4.58-9.69,10.79s3.71,10.85,9.69,10.85c2.9,0,5.28-1.16,7.14-3.66l2.9,2.67c-2.15,2.79-5.16,4.87-10.27,4.87
		c-8.35,0-13.98-6.38-13.98-14.74C1145.86,172.76,1151.48,166.38,1159.84,166.38z"/>
	<path class="st0" d="M1194.58,191.9c-2.32,2.55-5.51,3.89-9.28,3.89c-4.76,0-9.81-3.19-9.81-9.28c0-6.27,5.05-9.22,9.81-9.22
		c3.83,0,7.02,1.22,9.28,3.83v-5.05c0-3.77-3.02-5.92-7.08-5.92c-3.36,0-6.09,1.22-8.58,3.89l-2.03-3.02
		c3.02-3.13,6.62-4.64,11.2-4.64c5.92,0,10.85,2.67,10.85,9.46v19.26h-4.35V191.9z M1194.58,183.9c-1.68-2.32-4.64-3.48-7.72-3.48
		c-4.06,0-6.9,2.55-6.9,6.15c0,3.54,2.84,6.09,6.9,6.09c3.07,0,6.03-1.16,7.72-3.48V183.9z"/>
	<path class="st0" d="M1210.64,199.04c2.32,2.79,5.1,3.83,9.11,3.83c4.64,0,8.99-2.26,8.99-8.41v-4c-2.03,2.84-5.45,4.99-9.4,4.99
		c-7.31,0-12.47-5.45-12.47-14.5c0-8.99,5.1-14.56,12.47-14.56c3.77,0,7.14,1.86,9.4,4.93v-4.24h4.35v27.21
		c0,9.28-6.5,12.18-13.34,12.18c-4.76,0-8-0.93-11.31-4.18L1210.64,199.04z M1228.74,174.79c-1.51-2.44-4.87-4.52-8.35-4.52
		c-5.63,0-8.99,4.47-8.99,10.67c0,6.15,3.37,10.67,8.99,10.67c3.48,0,6.85-2.15,8.35-4.58V174.79z"/>
	<path class="st0" d="M1241.03,181.06c0-8.12,5.34-14.68,13.86-14.68c8.53,0,13.87,6.55,13.87,14.68s-5.34,14.74-13.87,14.74
		C1246.36,195.79,1241.03,189.18,1241.03,181.06z M1264.17,181.06c0-5.69-3.31-10.79-9.28-10.79c-5.97,0-9.34,5.1-9.34,10.79
		c0,5.74,3.37,10.85,9.34,10.85C1260.87,191.9,1264.17,186.8,1264.17,181.06z"/>
	<path class="st1" d="M242.43,119.19c-23.36-0.74-64.38-3.02-83.8-4.31c-3.96-0.26-6.37-1.49-7.81-3.98
		c-1.44-2.49-1.3-5.19,0.45-8.75c8.78-17.85,26.97-53.96,38.14-74.79l0.07-0.14l-3.78-2.18l-0.08,0.13
		c-12.43,20.04-34.88,54.38-45.64,70.46c-2.21,3.3-4.47,4.77-7.35,4.77c-2.88,0-5.15-1.47-7.35-4.77
		c-11.32-16.91-33.5-50.8-45.69-70.46l-0.08-0.13l-3.78,2.18l0.07,0.14c11.07,20.65,29.29,56.7,38.19,74.79
		c1.75,3.56,1.89,6.26,0.45,8.75c-1.44,2.49-3.85,3.72-7.81,3.98c-19.4,1.29-60.43,3.57-83.85,4.31l-0.15,0.01l0,4.36l0.15,0.01
		c22.8,0.72,63.35,2.99,83.85,4.36c3.96,0.26,6.37,1.49,7.81,3.98c1.44,2.49,1.3,5.19-0.45,8.75c-8.55,17.38-27.07,54-38.19,74.74
		l-0.07,0.14l3.78,2.18l0.08-0.13c12.46-20.09,34.63-53.89,45.69-70.41c2.21-3.3,4.47-4.77,7.35-4.77c2.88,0,5.15,1.47,7.35,4.77
		c11.21,16.75,33.31,50.53,45.64,70.41l0.08,0.13l3.78-2.18l-0.07-0.14c-10.88-20.3-29.14-56.45-38.14-74.74
		c-1.75-3.56-1.89-6.26-0.45-8.75c1.44-2.49,3.85-3.72,7.81-3.98c20.53-1.37,61.07-3.64,83.8-4.36l0.15-0.01v-4.36L242.43,119.19z"
		/>
	<path class="st1" d="M804.94,217.71h35.6l-57.46-77.68c17.93-4.11,26.31-12.69,31.62-19.77c8.06-10.74,11.98-22.09,11.98-34.7
		c0-18.67-6.54-33.62-19.43-44.43c-12.59-10.56-30.03-16.61-51.84-16.61h-75.84V217.7h28.65v-72.89h43.85L804.94,217.71z
		 M795.82,86.1c0,9.38-3.24,16.81-9.91,22.7c-6.81,6.02-16.21,9.08-27.91,9.08h-49.78V51.76h46.87c13.15,0.09,23.42,3.92,30.51,9.99
		C792.48,67.64,795.82,75.61,795.82,86.1z"/>
	<path class="st1" d="M401.94,149.94c0,7.64,0.31,15.21,0.62,20.8c-3.77-6.5-9.54-15.77-15.79-24.24L295.62,24.51H263.7v193.2h30.69
		V83.86c0-5.02-0.23-10.46-0.5-14.97c3.37,5.93,8.04,13.67,12.64,19.89l96.45,128.92h28.9V24.51h-29.93V149.94z"/>
	<path class="st1" d="M555.32,23.06c-28.91,0-53.59,10.31-71.38,29.8c-16.41,17.99-25.45,42.43-25.45,68.81
		c0,48.47,33.38,97.53,97.18,97.53c63.33,0,96.47-49.61,96.47-98.62C652.15,56.56,603.44,23.06,555.32,23.06z M618.83,121.67
		c0,35.37-19.65,71.05-63.54,71.05c-43.9,0-63.55-36.23-63.55-72.14c0-49.08,32.09-71.05,63.89-71.05
		C584.79,49.54,618.83,68.43,618.83,121.67z"/>
	<path class="st1" d="M997.49,169.87c-10.83,12.86-27.18,23.09-49.69,23.09c-45.69,0-66.14-36.23-66.14-72.14
		c0-49.08,33.4-71.05,66.5-71.05c16.51,0,34.48,6.8,47.48,20.34l17.45-24.16C994.84,30.97,971.26,23.3,947.8,23.3
		c-29.49,0-54.67,10.31-72.8,29.8c-16.74,17.99-25.96,42.43-25.96,68.81c0,48.47,34.05,97.53,99.13,97.53
		c28.43,0,50.89-9.61,67.13-24.55L997.49,169.87z"/>
	<path class="st1" d="M822.26,172.46"/>
</g>
</svg>
